<svg xmlns="http://www.w3.org/2000/svg" viewBox="0 0 32 32"><rect width="32" height="32" rx="6" fill="#0F1012"/><circle cx="16" cy="15.4" r="11.6" fill="#E0A452"/><path d="M24.60 15.40L27.20 15.40M22.96 20.45L25.06 21.98M18.66 23.58L19.46 26.05M13.34 23.58L12.54 26.05M9.04 20.45L6.94 21.98M7.40 15.40L4.80 15.40M9.04 10.35L6.94 8.82M13.34 7.22L12.54 4.75M18.66 7.22L19.46 4.75M22.96 10.35L25.06 8.82" stroke="#9C5E24" stroke-width="1" stroke-linecap="round"/><circle cx="16" cy="15.4" r="8.2" fill="#C4351E"/><circle cx="13" cy="13" r="1.9" fill="#FFF3D5"/><circle cx="18.6" cy="12.4" r="1.6" fill="#FFF3D5"/><circle cx="17.8" cy="18" r="2" fill="#FFF3D5"/><circle cx="12.6" cy="18.2" r="1.4" fill="#FFF3D5"/><rect x="6" y="28.2" width="6.7" height="1.8" fill="#1C9A4A"/><rect x="12.7" y="28.2" width="6.6" height="1.8" fill="#F4F4EF"/><rect x="19.3" y="28.2" width="6.7" height="1.8" fill="#D3292E"/></svg>